<svg width="640" height="360" viewBox="0 0 640 360" fill="none" xmlns="http://www.w3.org/2000/svg">
  <rect width="640" height="360" rx="28" fill="url(#paint0_linear)" />
  <path d="M120 232C120 196 150 166 188 166H452C486 166 514 194 514 228C548 228 576 258 576 292H96C96 260 120 232 152 232H120Z" fill="white" fill-opacity="0.15"/>
  <circle cx="214" cy="268" r="44" fill="white"/>
  <circle cx="214" cy="268" r="30" fill="url(#paint1_linear)"/>
  <circle cx="446" cy="268" r="44" fill="white"/>
  <circle cx="446" cy="268" r="30" fill="url(#paint2_linear)"/>
  <path d="M216 156C216 132 236 112 260 112H384C408 112 428 132 428 156V166H216V156Z" fill="white" fill-opacity="0.18"/>
  <text x="60" y="108" fill="white" opacity="0.85" font-family="Poppins, Arial, sans-serif" font-weight="600" font-size="42">EVR Fleet</text>
  <text x="60" y="148" fill="white" opacity="0.75" font-family="Poppins, Arial, sans-serif" font-size="18">Intelligent electric mobility</text>
  <defs>
    <linearGradient id="paint0_linear" x1="56" y1="44" x2="588" y2="312" gradientUnits="userSpaceOnUse">
      <stop offset="0" stop-color="#1B2A4A"/>
      <stop offset="1" stop-color="#273C6B"/>
    </linearGradient>
    <linearGradient id="paint1_linear" x1="184" y1="238" x2="244" y2="298" gradientUnits="userSpaceOnUse">
      <stop stop-color="#FFFFFF" stop-opacity="0.98"/>
      <stop offset="1" stop-color="#D0E4FF" stop-opacity="0.7"/>
    </linearGradient>
    <linearGradient id="paint2_linear" x1="416" y1="238" x2="476" y2="298" gradientUnits="userSpaceOnUse">
      <stop stop-color="#FFFFFF" stop-opacity="0.98"/>
      <stop offset="1" stop-color="#D0E4FF" stop-opacity="0.7"/>
    </linearGradient>
  </defs>
</svg>


