<svg width="640" height="360" viewBox="0 0 640 360" fill="none" xmlns="http://www.w3.org/2000/svg">
  <rect width="640" height="360" rx="28" fill="url(#paint0_linear)" />
  <path d="M112 242C112 204 144 172 182 172H468C504 172 534 202 536 238C572 238 604 270 604 308H76C76 276 100 248 132 248H112Z" fill="white" fill-opacity="0.14"/>
  <circle cx="202" cy="278" r="46" fill="white"/>
  <circle cx="202" cy="278" r="32" fill="url(#paint1_linear)"/>
  <circle cx="462" cy="278" r="46" fill="white"/>
  <circle cx="462" cy="278" r="32" fill="url(#paint2_linear)"/>
  <path d="M236 152C236 125 258 104 285 104H408C435 104 456 125 456 152V166H236V152Z" fill="white" fill-opacity="0.2"/>
  <text x="60" y="108" fill="white" opacity="0.92" font-family="Poppins, Arial, sans-serif" font-weight="600" font-size="42">Adventure SUV</text>
  <text x="60" y="148" fill="white" opacity="0.78" font-family="Poppins, Arial, sans-serif" font-size="18">520km range · Off-road ready</text>
  <defs>
    <linearGradient id="paint0_linear" x1="40" y1="52" x2="600" y2="328" gradientUnits="userSpaceOnUse">
      <stop offset="0" stop-color="#0A4032"/>
      <stop offset="1" stop-color="#0D8774"/>
    </linearGradient>
    <linearGradient id="paint1_linear" x1="170" y1="246" x2="234" y2="310" gradientUnits="userSpaceOnUse">
      <stop stop-color="#FFFFFF" stop-opacity="0.98"/>
      <stop offset="1" stop-color="#E0F6EE" stop-opacity="0.7"/>
    </linearGradient>
    <linearGradient id="paint2_linear" x1="430" y1="246" x2="494" y2="310" gradientUnits="userSpaceOnUse">
      <stop stop-color="#FFFFFF" stop-opacity="0.98"/>
      <stop offset="1" stop-color="#E0F6EE" stop-opacity="0.7"/>
    </linearGradient>
  </defs>
</svg>


