<svg width="640" height="360" viewBox="0 0 640 360" fill="none" xmlns="http://www.w3.org/2000/svg">
  <rect width="640" height="360" rx="28" fill="url(#paint0_linear)" />
  <path d="M128 236C128 199 158 169 195 169H452C486 169 514 197 514 231C548 231 576 259 576 293H104C104 262 128 236 160 236H128Z" fill="white" fill-opacity="0.15"/>
  <circle cx="214" cy="268" r="44" fill="white"/>
  <circle cx="214" cy="268" r="30" fill="url(#paint1_linear)"/>
  <circle cx="454" cy="268" r="44" fill="white"/>
  <circle cx="454" cy="268" r="30" fill="url(#paint2_linear)"/>
  <path d="M224 160C224 134 246 112 272 112H404C430 112 452 134 452 160V170H224V160Z" fill="white" fill-opacity="0.2"/>
  <text x="60" y="108" fill="white" opacity="0.9" font-family="Poppins, Arial, sans-serif" font-weight="600" font-size="42">Executive Sedan</text>
  <text x="60" y="148" fill="white" opacity="0.75" font-family="Poppins, Arial, sans-serif" font-size="18">450km range · Business class comfort</text>
  <defs>
    <linearGradient id="paint0_linear" x1="72" y1="32" x2="596" y2="320" gradientUnits="userSpaceOnUse">
      <stop offset="0" stop-color="#0A2540"/>
      <stop offset="1" stop-color="#143C7A"/>
    </linearGradient>
    <linearGradient id="paint1_linear" x1="184" y1="238" x2="244" y2="298" gradientUnits="userSpaceOnUse">
      <stop stop-color="#FFFFFF" stop-opacity="0.98"/>
      <stop offset="1" stop-color="#D0E4FF" stop-opacity="0.7"/>
    </linearGradient>
    <linearGradient id="paint2_linear" x1="424" y1="238" x2="484" y2="298" gradientUnits="userSpaceOnUse">
      <stop stop-color="#FFFFFF" stop-opacity="0.98"/>
      <stop offset="1" stop-color="#D0E4FF" stop-opacity="0.7"/>
    </linearGradient>
  </defs>
</svg>


