<svg width="640" height="360" viewBox="0 0 640 360" fill="none" xmlns="http://www.w3.org/2000/svg">
  <rect width="640" height="360" rx="28" fill="url(#paint0_linear)" />
  <path d="M128 224C128 190 154 164 188 164H424C454 164 478 188 478 218C514 218 544 248 544 284H112C112 252 136 224 168 224H128Z" fill="white" fill-opacity="0.12"/>
  <circle cx="204" cy="254" r="42" fill="white"/>
  <circle cx="204" cy="254" r="28" fill="url(#paint1_linear)"/>
  <circle cx="436" cy="254" r="42" fill="white"/>
  <circle cx="436" cy="254" r="28" fill="url(#paint2_linear)"/>
  <path d="M216 158C216 134 236 114 260 114H372C396 114 416 134 416 158V166H216V158Z" fill="white" fill-opacity="0.18"/>
  <text x="60" y="110" fill="white" opacity="0.85" font-family="Poppins, Arial, sans-serif" font-weight="600" font-size="42">Urban eCompact</text>
  <text x="60" y="150" fill="white" opacity="0.7" font-family="Poppins, Arial, sans-serif" font-size="18">320km range · City favorite</text>
  <defs>
    <linearGradient id="paint0_linear" x1="48" y1="36" x2="612" y2="324" gradientUnits="userSpaceOnUse">
      <stop offset="0" stop-color="#00D1FF"/>
      <stop offset="1" stop-color="#1676FF"/>
    </linearGradient>
    <linearGradient id="paint1_linear" x1="176" y1="226" x2="232" y2="282" gradientUnits="userSpaceOnUse">
      <stop stop-color="#FFFFFF" stop-opacity="0.95"/>
      <stop offset="1" stop-color="#C7E9FF" stop-opacity="0.65"/>
    </linearGradient>
    <linearGradient id="paint2_linear" x1="408" y1="226" x2="464" y2="282" gradientUnits="userSpaceOnUse">
      <stop stop-color="#FFFFFF" stop-opacity="0.95"/>
      <stop offset="1" stop-color="#C7E9FF" stop-opacity="0.65"/>
    </linearGradient>
  </defs>
</svg>


